# 3ds Max Wavefront OBJ Exporter v0.99 - (c)2007 guruware
# File Created: 23.03.2024 10:40:45

mtllib cofre.mtl

#
# object cofre
#

v  -0.2048 1.1097 -2.0346
v  -1.8310 0.9405 -0.2889
v  -0.2048 0.9797 -0.2531
v  1.4214 0.9405 -0.2889
v  2.3717 0.8959 -0.3837
v  1.7887 1.1367 -2.3511
v  -1.6969 0.6985 0.8471
v  -0.2048 0.7389 0.8849
v  1.2872 0.6985 0.8471
v  2.0583 0.6380 0.8376
v  1.1807 0.3225 1.7913
v  1.8044 -0.2233 2.6425
v  1.9375 0.2512 1.7136
v  -0.1833 0.3510 1.8536
v  -1.4530 -0.1866 2.8586
v  -0.1833 -0.1878 2.9897
v  1.0648 -0.1971 2.8638
v  -1.5903 0.3225 1.7913
v  3.0218 1.1761 -3.3633
v  -2.1983 1.1367 -2.3511
v  -2.7814 0.8959 -0.3837
v  -2.4679 0.6380 0.8376
v  -2.3257 0.2618 1.7083
v  -2.1926 -0.2127 2.6372
v  -3.4315 1.1761 -3.3633
# 25 vertices

vn 0.0256 0.9975 0.0656
vn -0.0256 0.9975 0.0656
vn 0.0016 0.9961 0.0879
vn 0.0570 0.9936 0.0975
vn 0.0317 0.9793 0.1999
vn -0.0317 0.9793 0.1999
vn 0.0282 0.9785 0.2045
vn 0.0791 0.9746 0.2097
vn 0.1274 0.9037 0.4088
vn 0.1302 0.8786 0.4595
vn 0.0771 0.9259 0.3698
vn 0.0346 0.9298 0.3665
vn 0.0498 0.9055 0.4215
vn -0.0433 0.9057 0.4216
vn 0.0388 0.9008 0.4326
vn 0.1642 0.8838 0.4380
vn 0.0679 0.9741 0.2158
vn 0.0363 0.9306 0.3642
vn -0.0353 0.9301 0.3656
vn 0.0548 0.9937 0.0982
vn -0.0016 0.9961 0.0879
vn -0.0570 0.9936 0.0975
vn -0.0282 0.9785 0.2045
vn -0.0791 0.9746 0.2097
vn -0.0771 0.9259 0.3698
vn -0.0346 0.9298 0.3665
vn -0.1209 0.9068 0.4038
vn -0.1249 0.8795 0.4592
vn -0.0374 0.9032 0.4277
vn -0.1634 0.8853 0.4354
vn -0.0679 0.9741 0.2158
vn -0.0548 0.9937 0.0982
# 32 vertex normals

o cofre
g cofre
usemtl Body
s off
f 1//1 2//2 3//1 4//1 
f 1//3 4//3 5//4 6//3 
f 3//5 7//6 8//5 9//5 
f 3//7 9//7 10//8 4//7 
f 11//9 12//10 13//9 10//9 
f 11//11 10//11 9//11 8//12 
f 14//13 15//14 16//13 17//13 
f 14//15 17//15 12//16 11//15 
f 4//17 10//17 5//17 
f 8//18 18//19 14//18 11//18 
f 5//20 19//20 6//20 
f 1//21 20//21 21//22 2//21 
f 3//23 2//23 22//24 7//23 
f 18//25 8//26 7//25 22//25 
f 18//27 22//27 23//27 24//28 
f 14//29 18//29 24//30 15//29 
f 2//31 21//31 22//31 
f 21//32 20//32 25//32 
# 14 polygons - 4 triangles

